<?xml version="1.0" standalone="no"?><!DOCTYPE svg PUBLIC "-//W3C//DTD SVG 1.1//EN" "http://www.w3.org/Graphics/SVG/1.1/DTD/svg11.dtd"><svg t="1500522385087" class="icon" style="" viewBox="0 0 1024 1024" version="1.1" xmlns="http://www.w3.org/2000/svg" p-id="18648" xmlns:xlink="http://www.w3.org/1999/xlink" width="48" height="48"><defs><style type="text/css"></style></defs><path d="M512 0a512 512 0 1 0 512 512A512 512 0 0 0 512 0z m0 901.12a389.12 389.12 0 1 1 389.12-389.12 389.12 389.12 0 0 1-389.12 389.12z" fill="#3cf13c" p-id="18649"></path><path d="M754.551467 343.04a68.266667 68.266667 0 0 0-96.529067 0L464.964267 536.1664 365.9776 436.906667a68.266667 68.266667 0 0 0-96.529067 96.802133L416.426667 680.96a68.266667 68.266667 0 0 0 96.529066 0l241.390934-241.390933a68.266667 68.266667 0 0 0 0.2048-96.529067z" fill="#3cf13c" p-id="18650"></path></svg>