<?xml version="1.0" standalone="no"?><!DOCTYPE svg PUBLIC "-//W3C//DTD SVG 1.1//EN" "http://www.w3.org/Graphics/SVG/1.1/DTD/svg11.dtd"><svg t="1500517749799" class="icon" style="" viewBox="0 0 1024 1024" version="1.1" xmlns="http://www.w3.org/2000/svg" p-id="5230" xmlns:xlink="http://www.w3.org/1999/xlink" width="48" height="48"><defs><style type="text/css"></style></defs><path d="M716.8 512a51.2 51.2 0 0 1-51.2 51.2H358.4a51.2 51.2 0 0 1 0-102.4h307.2a51.2 51.2 0 0 1 51.2 51.2M512 921.6A410.048 410.048 0 0 1 102.4 512c0-225.856 183.744-409.6 409.6-409.6 225.856 0 409.6 183.744 409.6 409.6 0 225.856-183.744 409.6-409.6 409.6M512 0a512 512 0 1 0 0 1024A512 512 0 0 0 512 0" p-id="5231" fill="#ff7400"></path></svg>