<?xml version="1.0" standalone="no"?><!DOCTYPE svg PUBLIC "-//W3C//DTD SVG 1.1//EN" "http://www.w3.org/Graphics/SVG/1.1/DTD/svg11.dtd"><svg t="1500517822674" class="icon" style="" viewBox="0 0 1024 1024" version="1.1" xmlns="http://www.w3.org/2000/svg" p-id="6105" xmlns:xlink="http://www.w3.org/1999/xlink" width="48" height="48"><defs><style type="text/css"></style></defs><path d="M1023.515 972.804v0.167c0 27.186-21.383 49.231-47.742 49.231H52.753c-26.357 0-47.743-22.045-47.743-49.231v-0.167s0-179.574 127.065-244.887c80.482-41.28 49.483-7.71 148.283-50.066 98.717-42.189 122.091-56.942 122.091-56.942l0.912-97.31s-36.967-29.174-48.405-120.764c-23.208 6.962-30.833-28.016-32.16-50.312-1.243-21.468-13.428-88.605 14.837-82.554-5.8-44.8-9.946-85.249-7.874-106.675C336.804 88.117 406.925 9.581 515.01 3.821c127.064 5.72 177.459 84.255 184.502 159.432 2.073 21.426-2.486 61.874-8.288 106.633 28.264-6.01 15.997 61.004 14.67 82.555-1.326 22.214-9.116 57.11-32.158 50.146-11.606 91.59-48.572 120.6-48.572 120.6l0.91 96.81s23.375 13.76 122.094 55.95c98.8 42.272 67.8 10.69 148.284 51.97 127.062 65.312 127.062 244.887 127.062 244.887z" p-id="6106" fill="#164ecf"></path></svg>