<?xml version="1.0" standalone="no"?><!DOCTYPE svg PUBLIC "-//W3C//DTD SVG 1.1//EN" "http://www.w3.org/Graphics/SVG/1.1/DTD/svg11.dtd"><svg t="1500523026522" class="icon" style="" viewBox="0 0 1024 1024" version="1.1" xmlns="http://www.w3.org/2000/svg" p-id="23314" xmlns:xlink="http://www.w3.org/1999/xlink" width="48" height="48"><defs><style type="text/css"></style></defs><path d="M193.774671 364.110057l0 192.254999c0 57.174898 46.762944 103.519381 104.449905 103.519381l545.264845 0 0-295.774381L193.774671 364.110057zM578.796733 460.146706l62.201928 0 0-20.394436-54.65863 0 0-14.277206 54.65863 0L640.998661 401.815536l15.499551 0 0 23.659528 58.33117 0 0 14.277206-58.33117 0 0 20.394436 62.405652 0-2.444689 39.973975c-4.894885-0.5451-10.131145-0.880969-15.703275-1.018621l2.240965-24.678148-124.200132 0L578.796733 460.146706zM600.617238 487.473268l7.548804-11.221345c12.779559 6.254881 25.014018 12.647413 36.708883 19.172091l-8.154471 12.443689C625.157735 500.665781 613.127 493.865801 600.617238 487.473268zM630.393995 518.47237l-7.950747 12.239965c-11.012114-7.069777-23.25208-14.073482-36.708883-21.005608l7.339574-11.012114C605.853498 504.811842 618.291681 511.402593 630.393995 518.47237zM545.149217 406.914145c10.329363 10.329363 20.664233 21.275405 30.999102 32.832619l-14.073482 11.623287c-9.519973-11.964662-19.309743-23.389731-29.369309-34.264194L545.149217 406.914145zM504.767794 585.772907c-35.827914-17.878168-63.3582-40.992596-82.596364-69.337778l0 85.244778-15.906999 0 0-85.041053c-20.664233 27.398141-48.271603 51.261393-82.800088 71.58425-2.587847-3.67254-6.254881-8.226049-11.012114-13.666034 36.918114-19.375815 66.078192-42.688461 87.491249-69.954457l-84.237169 0 0-15.092103 90.552617 0 0-38.338676-78.516376 0 0-15.092103 78.516376 0 0-34.86986 15.906999 0 0 34.86986 79.336778 0 0 15.092103-79.336778 0 0 38.338676 90.552617 0 0 15.092103-84.842835 0c21.892083 29.231658 51.327465 51.261393 88.311651 66.078192C512.377165 575.305893 508.566973 580.332923 504.767794 585.772907zM539.026482 583.93939c4.619582-4.079988 6.932126-9.927421 6.932126-17.542298l0-78.923824-24.474424 0 0-14.684655 39.770251 0 0 96.669846c6.799981-4.625088 14.618582-10.131145 23.455804-16.518172 0.269797 6.254881 0.748824 12.168386 1.426069 17.746022-14.954451 9.652118-27.530286 18.560919-37.73301 26.71539L539.026482 583.93939zM721.557784 547.026783 664.250741 547.026783c-0.952548 2.587847-1.971168 4.960958-3.061368 7.13585 20.256784 10.879969 40.177699 22.024229 59.757239 33.449297l-10.197218 13.869758c-20.394436-12.91721-39.566527-24.474424-57.510767-34.671642-12.239965 14.8168-34.875366 27.122838-67.91171 36.912607-2.989789-4.757233-6.392532-9.652118-10.197218-14.684655 39.428876-10.604666 63.561924-24.60657 72.399146-42.011216l-70.361905 0 0-14.277206 74.034445 0c2.719992-11.14426 3.738613-28.824209 3.061368-53.023331l15.499551 0c0.407448 25.564624-0.407448 43.239067-2.444689 53.023331l54.251182 0 0 14.277206L721.557784 547.026783z" p-id="23315" fill="#00c5c3"></path></svg>